<svg
  xmlns="http://www.w3.org/2000/svg"
  viewBox="0 0 64 64"
  role="img"
  aria-labelledby="title"
>
  <title>VPN Analyzer Toolkit</title>
  <defs>
    <linearGradient id="bg" x1="10" y1="8" x2="54" y2="56" gradientUnits="userSpaceOnUse">
      <stop offset="0" stop-color="#1366ff" />
      <stop offset="1" stop-color="#0c9488" />
    </linearGradient>
  </defs>
  <rect x="6" y="6" width="52" height="52" rx="16" fill="#08101f" />
  <rect x="10" y="10" width="44" height="44" rx="14" fill="url(#bg)" />
  <path
    d="M22 22h8.5c6.9 0 11.5 4.1 11.5 10S37.4 42 30.5 42H22V22Zm8.1 15.1c4.1 0 6.7-2 6.7-5.1s-2.6-5.1-6.7-5.1h-2.7v10.2h2.7Z"
    fill="#ffffff"
  />
  <path
    d="M38.5 20.5 43 16l2 2-4.5 4.5 4.5 4.5-2 2-4.5-4.5-4.5 4.5-2-2 4.5-4.5-4.5-4.5 2-2 4.5 4.5Z"
    fill="rgba(255,255,255,0.92)"
  />
</svg>
